# xmcd
#
# Track frame offsets: 
#        150
#        17336
#        52137
#        69082
#        85942
#        103470
#        120606
#        142523
#        161017
#
# Disc length: 2474 seconds
#
# Revision: 0
# Processed by: cddbd v1.5.2PL0 Copyright (c) Steve Scherf et al.
# Submitted via: ExactAudioCopy v1.3
#
DISCID=6d09a809
DTITLE=Crazy Hambones - 45
DYEAR=2015
DGENRE=Blues
TTITLE0=Moon
TTITLE1=Have A Good Time
TTITLE2=12 Gates To The City
TTITLE3=Time And A Place
TTITLE4=Courting In A Cadillac
TTITLE5=Cadillac Boogie
TTITLE6=Old Man's Eyes
TTITLE7=Hard Being A Man
TTITLE8=Come Back Baby
EXTD=
EXTT0=
EXTT1=
EXTT2=
EXTT3=
EXTT4=
EXTT5=
EXTT6=
EXTT7=
EXTT8=
PLAYORDER=
